<!-- icons.svg -->
<!-- vim:set ft=xml -->

<svg xmlns="http://www.w3.org/2000/svg" style="display: none;">
  <symbol id="autoIcon" class="theme-icon" xmlns="http://www.w3.org/2000/svg" stroke-width="1">
      <circle
          cx="12"
          cy="12"
          r="10"
          fill="none"
          id="circle1" />
      <!-- Right half: semicircle with stroke -->
      <path
          d="M 13,13 L 13,3 A 9,9 0 0,1 13,21 Z"
          stroke-width="1"
          id="path1"
          style="fill-opacity:1" />
    </symbol>
    
    <!-- Sun icon (shown in light mode) -->  
    <symbol id="sunIcon" class="theme-icon" fill="none" stroke-width="1" stroke-linecap="round" stroke-linejoin="round" xmlns="http://www.w3.org/2000/svg">
      <circle cx="15" cy="15" r="6" fill="#464646"></circle>
      <path fill="#464646" d="M15 6a1 1 0 0 1-1-1V3a1 1 0 0 1 2 0v2a1 1 0 0 1-1 1zm0 22a1 1 0 0 1-1-1v-2a1 1 0 0 1 2 0v2a1 1 0 0 1-1 1zM5 16H3a1 1 0 0 1 0-2h2a1 1 0 0 1 0 2zm22 0h-2a1 1 0 0 1 0-2h2a1 1 0 0 1 0 2zM6.51 24.49a1 1 0 0 1-.7-.3 1 1 0 0 1 0-1.41l1.41-1.42a1 1 0 0 1 1.42 1.42l-1.42 1.41a1 1 0 0 1-.71.3zM22.07 8.93a1 1 0 0 1-.71-.29 1 1 0 0 1 0-1.42l1.42-1.41a1 1 0 0 1 1.41 1.41l-1.41 1.42a1 1 0 0 1-.71.29zm1.42 15.56a1 1 0 0 1-.71-.3l-1.42-1.41a1 1 0 0 1 1.42-1.42l1.41 1.42a1 1 0 0 1 0 1.41 1 1 0 0 1-.7.3zM7.93 8.93a1 1 0 0 1-.71-.29L5.81 7.22a1 1 0 0 1 1.41-1.41l1.42 1.41a1 1 0 0 1 0 1.42 1 1 0 0 1-.71.29z"></path>
    </symbol>
    
    <!-- Moon icon (shown in dark mode) -->
    <symbol id="moonIcon" class="theme-icon" xmlns="http://www.w3.org/2000/svg" stroke-width="1" stroke-linecap="round" stroke-linejoin="round">
      <path d="M21 12.79A9 9 0 1 1 11.21 3 7 7 0 0 0 21 12.79z" fill="none"></path>
    </symbol>
  </svg>
  